<svg xmlns="http://www.w3.org/2000/svg" xmlns:xlink="http://www.w3.org/1999/xlink" width="500" zoomAndPan="magnify" viewBox="0 0 375 374.999991" height="500" preserveAspectRatio="xMidYMid meet" version="1.0"><defs><g/><clipPath id="2285cde2d3"><path d="M 287 161 L 325 161 L 325 235 L 287 235 Z M 287 161 " clip-rule="nonzero"/></clipPath><clipPath id="f03d7ba92e"><path d="M 287.121094 161.910156 L 325.601562 161.953125 L 325.519531 234.632812 L 287.039062 234.589844 Z M 287.121094 161.910156 " clip-rule="nonzero"/></clipPath><clipPath id="4d5cad6405"><path d="M 287.121094 161.910156 L 325.601562 161.953125 L 325.519531 234.632812 L 287.039062 234.589844 Z M 287.121094 161.910156 " clip-rule="nonzero"/></clipPath><clipPath id="dca59ac134"><path d="M 287 161 L 309 161 L 309 235 L 287 235 Z M 287 161 " clip-rule="nonzero"/></clipPath><clipPath id="1d46da4979"><path d="M 287.121094 161.910156 L 325.601562 161.953125 L 325.519531 234.632812 L 287.039062 234.589844 Z M 287.121094 161.910156 " clip-rule="nonzero"/></clipPath><clipPath id="bed15589da"><path d="M 287.121094 161.910156 L 325.601562 161.953125 L 325.519531 234.632812 L 287.039062 234.589844 Z M 287.121094 161.910156 " clip-rule="nonzero"/></clipPath></defs><g fill="#000000" fill-opacity="1"><g transform="translate(17.605787, 235.821327)"><g><path d="M 85.5 -73.328125 L 55.203125 0 L 28.6875 0 L -1.484375 -73.328125 L 24.890625 -73.328125 L 42.484375 -28.546875 L 61.015625 -73.328125 Z M 85.5 -73.328125 "/></g></g></g><g fill="#000000" fill-opacity="1"><g transform="translate(87.691168, 235.821327)"><g><path d="M 8.25 -73.328125 L 33.953125 -73.328125 L 33.953125 0 L 8.25 0 Z M 21.109375 -81.453125 C 16.421875 -81.453125 12.632812 -82.757812 9.75 -85.375 C 6.863281 -87.988281 5.421875 -91.234375 5.421875 -95.109375 C 5.421875 -98.992188 6.863281 -102.242188 9.75 -104.859375 C 12.632812 -107.472656 16.421875 -108.78125 21.109375 -108.78125 C 25.804688 -108.78125 29.597656 -107.539062 32.484375 -105.0625 C 35.367188 -102.582031 36.8125 -99.398438 36.8125 -95.515625 C 36.8125 -91.460938 35.367188 -88.101562 32.484375 -85.4375 C 29.597656 -82.78125 25.804688 -81.453125 21.109375 -81.453125 Z M 21.109375 -81.453125 "/></g></g></g><g fill="#000000" fill-opacity="1"><g transform="translate(116.239444, 235.821327)"><g><path d="M 58.859375 -2.96875 C 56.691406 -1.625 54.050781 -0.59375 50.9375 0.125 C 47.820312 0.851562 44.507812 1.21875 41 1.21875 C 31.4375 1.21875 24.082031 -1.125 18.9375 -5.8125 C 13.800781 -10.507812 11.234375 -17.5 11.234375 -26.78125 L 11.234375 -51.40625 L 0.546875 -51.40625 L 0.546875 -70.625 L 11.234375 -70.625 L 11.234375 -89.703125 L 36.9375 -89.703125 L 36.9375 -70.625 L 53.71875 -70.625 L 53.71875 -51.40625 L 36.9375 -51.40625 L 36.9375 -27.0625 C 36.9375 -24.445312 37.632812 -22.394531 39.03125 -20.90625 C 40.425781 -19.414062 42.296875 -18.671875 44.640625 -18.671875 C 47.617188 -18.671875 50.238281 -19.4375 52.5 -20.96875 Z M 58.859375 -2.96875 "/></g></g></g><g fill="#000000" fill-opacity="1"><g transform="translate(162.917902, 235.821327)"><g><path d="M 45.046875 1.21875 C 37.203125 1.21875 30.125 -0.40625 23.8125 -3.65625 C 17.5 -6.90625 12.5625 -11.414062 9 -17.1875 C 5.4375 -22.957031 3.65625 -29.492188 3.65625 -36.796875 C 3.65625 -44.015625 5.4375 -50.507812 9 -56.28125 C 12.5625 -62.050781 17.472656 -66.535156 23.734375 -69.734375 C 30.003906 -72.941406 37.109375 -74.546875 45.046875 -74.546875 C 52.984375 -74.546875 60.109375 -72.941406 66.421875 -69.734375 C 72.742188 -66.535156 77.660156 -62.070312 81.171875 -56.34375 C 84.691406 -50.625 86.453125 -44.109375 86.453125 -36.796875 C 86.453125 -29.492188 84.691406 -22.957031 81.171875 -17.1875 C 77.660156 -11.414062 72.742188 -6.90625 66.421875 -3.65625 C 60.109375 -0.40625 52.984375 1.21875 45.046875 1.21875 Z M 45.046875 -19.21875 C 49.554688 -19.21875 53.253906 -20.769531 56.140625 -23.875 C 59.035156 -26.988281 60.484375 -31.296875 60.484375 -36.796875 C 60.484375 -42.210938 59.035156 -46.453125 56.140625 -49.515625 C 53.253906 -52.585938 49.554688 -54.125 45.046875 -54.125 C 40.535156 -54.125 36.835938 -52.585938 33.953125 -49.515625 C 31.066406 -46.453125 29.625 -42.210938 29.625 -36.796875 C 29.625 -31.296875 31.066406 -26.988281 33.953125 -23.875 C 36.835938 -20.769531 40.535156 -19.21875 45.046875 -19.21875 Z M 45.046875 -19.21875 "/></g></g></g><g fill="#000000" fill-opacity="1"><g transform="translate(239.227041, 235.821327)"><g><path d="M 85.375 -73.328125 L 85.375 0 L 60.890625 0 L 60.890625 -7.84375 C 58.179688 -4.863281 54.929688 -2.609375 51.140625 -1.078125 C 47.347656 0.453125 43.332031 1.21875 39.09375 1.21875 C 29.625 1.21875 22.070312 -1.578125 16.4375 -7.171875 C 10.800781 -12.765625 7.984375 -21.15625 7.984375 -32.34375 L 7.984375 -73.328125 L 33.6875 -73.328125 L 33.6875 -36.53125 C 33.6875 -31.03125 34.722656 -27.015625 36.796875 -24.484375 C 38.867188 -21.960938 41.890625 -20.703125 45.859375 -20.703125 C 49.921875 -20.703125 53.238281 -22.117188 55.8125 -24.953125 C 58.382812 -27.796875 59.671875 -32.148438 59.671875 -38.015625 L 59.671875 -73.328125 Z M 85.375 -73.328125 "/></g></g></g><g fill="#000000" fill-opacity="1"><g transform="translate(319.054021, 235.821327)"><g><path d="M 19.078125 1.21875 C 14.742188 1.21875 11.085938 -0.222656 8.109375 -3.109375 C 5.140625 -5.992188 3.65625 -9.648438 3.65625 -14.078125 C 3.65625 -18.578125 5.117188 -22.222656 8.046875 -25.015625 C 10.984375 -27.816406 14.660156 -29.21875 19.078125 -29.21875 C 23.585938 -29.21875 27.285156 -27.816406 30.171875 -25.015625 C 33.054688 -22.222656 34.5 -18.578125 34.5 -14.078125 C 34.5 -9.648438 33.03125 -5.992188 30.09375 -3.109375 C 27.164062 -0.222656 23.492188 1.21875 19.078125 1.21875 Z M 19.078125 1.21875 "/></g></g></g><g clip-path="url(#2285cde2d3)"><g clip-path="url(#f03d7ba92e)"><g clip-path="url(#4d5cad6405)"><path fill="#ffffff" d="M 305.703125 161.929688 L 324.59375 161.953125 L 309.582031 187.320312 L 320.65625 187.332031 L 287.050781 235.527344 L 302.078125 198.136719 L 290.027344 198.71875 Z M 305.703125 161.929688 " fill-opacity="1" fill-rule="nonzero"/></g></g></g><g clip-path="url(#dca59ac134)"><g clip-path="url(#1d46da4979)"><g clip-path="url(#bed15589da)"><path fill="#ffffff" d="M 305.703125 161.929688 L 308.957031 161.933594 L 290.027344 198.71875 Z M 287.050781 235.527344 L 304.359375 198.140625 L 302.078125 198.136719 Z M 287.050781 235.527344 " fill-opacity="1" fill-rule="nonzero"/></g></g></g></svg>