<svg xmlns="http://www.w3.org/2000/svg" xmlns:xlink="http://www.w3.org/1999/xlink" width="500" zoomAndPan="magnify" viewBox="0 0 375 374.999991" height="500" preserveAspectRatio="xMidYMid meet" version="1.0"><defs><g/><clipPath id="ced8dfea76"><path d="M 222 163 L 236 163 L 236 189 L 222 189 Z M 222 163 " clip-rule="nonzero"/></clipPath><clipPath id="c71f26d2e6"><path d="M 222.453125 163.148438 L 235.953125 163.164062 L 235.921875 188.664062 L 222.421875 188.648438 Z M 222.453125 163.148438 " clip-rule="nonzero"/></clipPath><clipPath id="d0585fd6a9"><path d="M 222.453125 163.148438 L 235.953125 163.164062 L 235.921875 188.664062 L 222.421875 188.648438 Z M 222.453125 163.148438 " clip-rule="nonzero"/></clipPath><clipPath id="5d0154c11c"><path d="M 222 163 L 231 163 L 231 189 L 222 189 Z M 222 163 " clip-rule="nonzero"/></clipPath><clipPath id="e2b4b8bd01"><path d="M 222.453125 163.148438 L 235.953125 163.164062 L 235.921875 188.664062 L 222.421875 188.648438 Z M 222.453125 163.148438 " clip-rule="nonzero"/></clipPath><clipPath id="3bf5e0ccc8"><path d="M 222.453125 163.148438 L 235.953125 163.164062 L 235.921875 188.664062 L 222.421875 188.648438 Z M 222.453125 163.148438 " clip-rule="nonzero"/></clipPath></defs><g fill="#000000" fill-opacity="1"><g transform="translate(127.89307, 189.080726)"><g><path d="M 30 -25.734375 L 19.375 0 L 10.0625 0 L -0.515625 -25.734375 L 8.734375 -25.734375 L 14.90625 -10.015625 L 21.40625 -25.734375 Z M 30 -25.734375 "/></g></g></g><g fill="#000000" fill-opacity="1"><g transform="translate(152.482332, 189.080726)"><g><path d="M 2.890625 -25.734375 L 11.921875 -25.734375 L 11.921875 0 L 2.890625 0 Z M 7.40625 -28.578125 C 5.757812 -28.578125 4.425781 -29.035156 3.40625 -29.953125 C 2.394531 -30.867188 1.890625 -32.007812 1.890625 -33.375 C 1.890625 -34.726562 2.394531 -35.863281 3.40625 -36.78125 C 4.425781 -37.707031 5.757812 -38.171875 7.40625 -38.171875 C 9.050781 -38.171875 10.378906 -37.734375 11.390625 -36.859375 C 12.398438 -35.984375 12.90625 -34.867188 12.90625 -33.515625 C 12.90625 -32.085938 12.398438 -30.90625 11.390625 -29.96875 C 10.378906 -29.039062 9.050781 -28.578125 7.40625 -28.578125 Z M 7.40625 -28.578125 "/></g></g></g><g fill="#000000" fill-opacity="1"><g transform="translate(162.498416, 189.080726)"><g><path d="M 20.65625 -1.046875 C 19.894531 -0.566406 18.96875 -0.203125 17.875 0.046875 C 16.78125 0.296875 15.617188 0.421875 14.390625 0.421875 C 11.023438 0.421875 8.441406 -0.398438 6.640625 -2.046875 C 4.835938 -3.691406 3.9375 -6.144531 3.9375 -9.40625 L 3.9375 -18.03125 L 0.1875 -18.03125 L 0.1875 -24.78125 L 3.9375 -24.78125 L 3.9375 -31.46875 L 12.953125 -31.46875 L 12.953125 -24.78125 L 18.84375 -24.78125 L 18.84375 -18.03125 L 12.953125 -18.03125 L 12.953125 -9.5 C 12.953125 -8.570312 13.195312 -7.847656 13.6875 -7.328125 C 14.1875 -6.804688 14.847656 -6.546875 15.671875 -6.546875 C 16.710938 -6.546875 17.628906 -6.816406 18.421875 -7.359375 Z M 20.65625 -1.046875 "/></g></g></g><g fill="#000000" fill-opacity="1"><g transform="translate(178.875425, 189.080726)"><g><path d="M 15.8125 0.421875 C 13.050781 0.421875 10.5625 -0.144531 8.34375 -1.28125 C 6.132812 -2.414062 4.40625 -3.992188 3.15625 -6.015625 C 1.90625 -8.046875 1.28125 -10.34375 1.28125 -12.90625 C 1.28125 -15.4375 1.90625 -17.710938 3.15625 -19.734375 C 4.40625 -21.765625 6.128906 -23.34375 8.328125 -24.46875 C 10.523438 -25.59375 13.019531 -26.15625 15.8125 -26.15625 C 18.59375 -26.15625 21.085938 -25.59375 23.296875 -24.46875 C 25.515625 -23.34375 27.238281 -21.773438 28.46875 -19.765625 C 29.707031 -17.753906 30.328125 -15.46875 30.328125 -12.90625 C 30.328125 -10.34375 29.707031 -8.046875 28.46875 -6.015625 C 27.238281 -3.992188 25.515625 -2.414062 23.296875 -1.28125 C 21.085938 -0.144531 18.59375 0.421875 15.8125 0.421875 Z M 15.8125 -6.734375 C 17.394531 -6.734375 18.691406 -7.28125 19.703125 -8.375 C 20.710938 -9.46875 21.21875 -10.976562 21.21875 -12.90625 C 21.21875 -14.8125 20.710938 -16.300781 19.703125 -17.375 C 18.691406 -18.445312 17.394531 -18.984375 15.8125 -18.984375 C 14.226562 -18.984375 12.925781 -18.445312 11.90625 -17.375 C 10.894531 -16.300781 10.390625 -14.8125 10.390625 -12.90625 C 10.390625 -10.976562 10.894531 -9.46875 11.90625 -8.375 C 12.925781 -7.28125 14.226562 -6.734375 15.8125 -6.734375 Z M 15.8125 -6.734375 "/></g></g></g><g fill="#000000" fill-opacity="1"><g transform="translate(205.648276, 189.080726)"><g><path d="M 29.953125 -25.734375 L 29.953125 0 L 21.359375 0 L 21.359375 -2.75 C 20.410156 -1.707031 19.269531 -0.914062 17.9375 -0.375 C 16.613281 0.15625 15.207031 0.421875 13.71875 0.421875 C 10.394531 0.421875 7.742188 -0.554688 5.765625 -2.515625 C 3.785156 -4.472656 2.796875 -7.414062 2.796875 -11.34375 L 2.796875 -25.734375 L 11.8125 -25.734375 L 11.8125 -12.8125 C 11.8125 -10.882812 12.175781 -9.476562 12.90625 -8.59375 C 13.632812 -7.707031 14.695312 -7.265625 16.09375 -7.265625 C 17.519531 -7.265625 18.679688 -7.757812 19.578125 -8.75 C 20.484375 -9.75 20.9375 -11.28125 20.9375 -13.34375 L 20.9375 -25.734375 Z M 29.953125 -25.734375 "/></g></g></g><g fill="#000000" fill-opacity="1"><g transform="translate(233.655352, 189.080726)"><g><path d="M 6.6875 0.421875 C 5.175781 0.421875 3.894531 -0.0820312 2.84375 -1.09375 C 1.800781 -2.101562 1.28125 -3.382812 1.28125 -4.9375 C 1.28125 -6.519531 1.789062 -7.800781 2.8125 -8.78125 C 3.84375 -9.757812 5.132812 -10.25 6.6875 -10.25 C 8.269531 -10.25 9.566406 -9.757812 10.578125 -8.78125 C 11.597656 -7.800781 12.109375 -6.519531 12.109375 -4.9375 C 12.109375 -3.382812 11.59375 -2.101562 10.5625 -1.09375 C 9.53125 -0.0820312 8.238281 0.421875 6.6875 0.421875 Z M 6.6875 0.421875 "/></g></g></g><g clip-path="url(#ced8dfea76)"><g clip-path="url(#c71f26d2e6)"><g clip-path="url(#d0585fd6a9)"><path fill="#ffffff" d="M 228.96875 163.15625 L 235.597656 163.164062 L 230.332031 172.066406 L 234.21875 172.070312 L 222.425781 188.976562 L 227.699219 175.859375 L 223.472656 176.0625 Z M 228.96875 163.15625 " fill-opacity="1" fill-rule="nonzero"/></g></g></g><g clip-path="url(#5d0154c11c)"><g clip-path="url(#e2b4b8bd01)"><g clip-path="url(#3bf5e0ccc8)"><path fill="#ffffff" d="M 228.96875 163.15625 L 230.113281 163.15625 L 223.472656 176.0625 Z M 222.425781 188.976562 L 228.5 175.859375 L 227.699219 175.859375 Z M 222.425781 188.976562 " fill-opacity="1" fill-rule="nonzero"/></g></g></g></svg>