<svg width="16" height="16" viewBox="0 0 16 16" fill="none" xmlns="http://www.w3.org/2000/svg">
<rect width="16" height="16" rx="4" fill="white"/>
<path d="M4.60896 6.93384L3.35195 10.9335H2.25182L1 6.93384H2.09429L2.82425 9.37645L3.59311 6.93384H4.60896Z" fill="black"/>
<path d="M4.31192 6.9338H5.37834V10.9335H4.31192V6.9338ZM4.84545 6.49062C4.65097 6.49062 4.49376 6.41946 4.37415 6.2767C4.25438 6.13416 4.19458 5.9571 4.19458 5.74574C4.19458 5.53395 4.25438 5.35668 4.37415 5.21392C4.49376 5.07138 4.65097 5 4.84545 5C5.04026 5 5.19763 5.06776 5.3174 5.20284C5.437 5.33814 5.49697 5.51179 5.49697 5.72358C5.49697 5.94474 5.437 6.12798 5.3174 6.27329C5.19763 6.41818 5.04026 6.49062 4.84545 6.49062Z" fill="black"/>
<path d="M7.59589 10.7715C7.50594 10.8448 7.39638 10.901 7.26721 10.9402C7.13788 10.9799 7.00044 10.9999 6.8549 10.9999C6.45816 10.9999 6.15298 10.8721 5.93954 10.6164C5.72642 10.3603 5.61994 9.97888 5.61994 9.47263V8.12945H5.17651V7.08115H5.61994V6.04053H6.68635V7.08115H7.3826V8.12945H6.68635V9.45728C6.68635 9.60004 6.7152 9.7119 6.77322 9.79308C6.83108 9.87447 6.90871 9.91495 7.00595 9.91495C7.12945 9.91495 7.2382 9.87319 7.33204 9.78967L7.59589 10.7715Z" fill="black"/>
<path d="M8.9596 10.9999C8.63416 10.9999 8.34049 10.9112 8.07859 10.7339C7.81668 10.5567 7.61183 10.3108 7.46402 9.99588C7.31621 9.68118 7.24231 9.32471 7.24231 8.92628C7.24231 8.53253 7.31621 8.17841 7.46402 7.86349C7.61183 7.54879 7.81555 7.30419 8.07535 7.12969C8.33547 6.95476 8.63027 6.86719 8.9596 6.86719C9.28892 6.86719 9.58454 6.95476 9.84644 7.12969C10.1087 7.30419 10.3127 7.54773 10.4584 7.86008C10.6044 8.17202 10.6775 8.52741 10.6775 8.92628C10.6775 9.32471 10.6044 9.68118 10.4584 9.99588C10.3127 10.3108 10.1087 10.5567 9.84644 10.7339C9.58454 10.9112 9.28892 10.9999 8.9596 10.9999ZM8.9596 9.88508C9.14663 9.88508 9.3001 9.80049 9.41987 9.6311C9.53997 9.46129 9.6001 9.22628 9.6001 8.92628C9.6001 8.63096 9.53997 8.39957 9.41987 8.23253C9.3001 8.06506 9.14663 7.98111 8.9596 7.98111C8.77241 7.98111 8.61893 8.06506 8.49932 8.23253C8.37955 8.39957 8.31975 8.63096 8.31975 8.92628C8.31975 9.22628 8.37955 9.46129 8.49932 9.6311C8.61893 9.80049 8.77241 9.88508 8.9596 9.88508Z" fill="black"/>
<path d="M13.7988 6.93384V10.9335H12.783V10.5057C12.6705 10.6683 12.5356 10.7912 12.3784 10.8747C12.2211 10.9583 12.0545 11 11.8786 11C11.4858 11 11.1723 10.8475 10.9386 10.5424C10.7047 10.2372 10.5879 9.77957 10.5879 9.16935V6.93384H11.6543V8.94094C11.6543 9.24094 11.6973 9.45997 11.7833 9.59804C11.8692 9.73568 11.9947 9.80429 12.1593 9.80429C12.3279 9.80429 12.4655 9.72716 12.5723 9.57247C12.6789 9.41736 12.7324 9.18 12.7324 8.85997V6.93384H13.7988Z" fill="black"/>
<path d="M14.3603 11.0001C14.1804 11.0001 14.0287 10.9214 13.9052 10.764C13.782 10.6067 13.7205 10.4073 13.7205 10.1657C13.7205 9.92024 13.7811 9.72145 13.9026 9.5691C14.0245 9.41634 14.177 9.33984 14.3603 9.33984C14.5473 9.33984 14.7008 9.41634 14.8206 9.5691C14.9402 9.72145 15.0002 9.92024 15.0002 10.1657C15.0002 10.4073 14.9392 10.6067 14.8173 10.764C14.6958 10.9214 14.5434 11.0001 14.3603 11.0001Z" fill="black"/>
<mask id="mask0_86_55" style="mask-type:luminance" maskUnits="userSpaceOnUse" x="12" y="6" width="2" height="5">
<path d="M12.2388 6.85229H13.8154V10.8887H12.2388V6.85229Z" fill="white"/>
</mask>
<g mask="url(#mask0_86_55)">
<mask id="mask1_86_55" style="mask-type:luminance" maskUnits="userSpaceOnUse" x="12" y="6" width="2" height="5">
<path d="M12.2438 6.9021L13.8403 6.90444L13.8369 10.8688L12.2404 10.8664L12.2438 6.9021Z" fill="white"/>
</mask>
<g mask="url(#mask1_86_55)">
<mask id="mask2_86_55" style="mask-type:luminance" maskUnits="userSpaceOnUse" x="12" y="6" width="2" height="5">
<path d="M12.2438 6.9021L13.8403 6.90444L13.8369 10.8688L12.2404 10.8664L12.2438 6.9021Z" fill="white"/>
</mask>
<g mask="url(#mask2_86_55)">
<path d="M13.0151 6.90332L13.7989 6.9046L13.176 8.28826L13.6355 8.2889L12.2412 10.9177L12.8647 8.87825L12.3647 8.90999L13.0151 6.90332Z" fill="white"/>
</g>
</g>
</g>
<mask id="mask3_86_55" style="mask-type:luminance" maskUnits="userSpaceOnUse" x="12" y="6" width="2" height="5">
<path d="M12.2388 6.85229H13.1515V10.8887H12.2388V6.85229Z" fill="white"/>
</mask>
<g mask="url(#mask3_86_55)">
<mask id="mask4_86_55" style="mask-type:luminance" maskUnits="userSpaceOnUse" x="12" y="6" width="2" height="5">
<path d="M12.2438 6.9021L13.8403 6.90444L13.8369 10.8688L12.2404 10.8664L12.2438 6.9021Z" fill="white"/>
</mask>
<g mask="url(#mask4_86_55)">
<mask id="mask5_86_55" style="mask-type:luminance" maskUnits="userSpaceOnUse" x="12" y="6" width="2" height="5">
<path d="M12.2438 6.9021L13.8403 6.90444L13.8369 10.8688L12.2404 10.8664L12.2438 6.9021Z" fill="white"/>
</mask>
<g mask="url(#mask5_86_55)">
<path d="M13.0151 6.90332L13.1501 6.90353L12.3647 8.90999L13.0151 6.90332ZM12.2412 10.9177L12.9593 8.87846L12.8647 8.87825L12.2412 10.9177Z" fill="white"/>
</g>
</g>
</g>
</svg>
